<svg width="32" height="32" viewBox="0 0 32 32" fill="none" xmlns="http://www.w3.org/2000/svg">
<g id="Icons">
<path id="Vector" d="M15.9999 21.3333C17.4666 21.3333 18.6666 22.5333 18.6666 24C18.6666 25.4667 17.4666 26.6667 15.9999 26.6667C14.5333 26.6667 13.3333 25.4667 13.3333 24C13.3333 22.5333 14.5333 21.3333 15.9999 21.3333ZM15.9999 13.3333C17.4666 13.3333 18.6666 14.5333 18.6666 16C18.6666 17.4667 17.4666 18.6667 15.9999 18.6667C14.5333 18.6667 13.3333 17.4667 13.3333 16C13.3333 14.5333 14.5333 13.3333 15.9999 13.3333ZM15.9999 5.33334C17.4666 5.33334 18.6666 6.53334 18.6666 8.00001C18.6666 9.46668 17.4666 10.6667 15.9999 10.6667C14.5333 10.6667 13.3333 9.46668 13.3333 8.00001C13.3333 6.53334 14.5333 5.33334 15.9999 5.33334ZM7.99992 21.3333C9.46659 21.3333 10.6666 22.5333 10.6666 24C10.6666 25.4667 9.46659 26.6667 7.99992 26.6667C6.53325 26.6667 5.33325 25.4667 5.33325 24C5.33325 22.5333 6.53325 21.3333 7.99992 21.3333ZM7.99992 13.3333C9.46659 13.3333 10.6666 14.5333 10.6666 16C10.6666 17.4667 9.46659 18.6667 7.99992 18.6667C6.53325 18.6667 5.33325 17.4667 5.33325 16C5.33325 14.5333 6.53325 13.3333 7.99992 13.3333ZM7.99992 5.33334C9.46659 5.33334 10.6666 6.53334 10.6666 8.00001C10.6666 9.46668 9.46659 10.6667 7.99992 10.6667C6.53325 10.6667 5.33325 9.46668 5.33325 8.00001C5.33325 6.53334 6.53325 5.33334 7.99992 5.33334ZM23.9999 21.3333C25.4666 21.3333 26.6666 22.5333 26.6666 24C26.6666 25.4667 25.4666 26.6667 23.9999 26.6667C22.5333 26.6667 21.3333 25.4667 21.3333 24C21.3333 22.5333 22.5333 21.3333 23.9999 21.3333ZM23.9999 13.3333C25.4666 13.3333 26.6666 14.5333 26.6666 16C26.6666 17.4667 25.4666 18.6667 23.9999 18.6667C22.5333 18.6667 21.3333 17.4667 21.3333 16C21.3333 14.5333 22.5333 13.3333 23.9999 13.3333ZM23.9999 5.33334C25.4666 5.33334 26.6666 6.53334 26.6666 8.00001C26.6666 9.46668 25.4666 10.6667 23.9999 10.6667C22.5333 10.6667 21.3333 9.46668 21.3333 8.00001C21.3333 6.53334 22.5333 5.33334 23.9999 5.33334Z" fill="#828282"/>
</g>
</svg>
