<svg width="12" height="12" viewBox="0 0 12 12" fill="none" xmlns="http://www.w3.org/2000/svg">
<g id="Icons">
<path id="Vector" d="M7.33 7.09C7.345 7.145 7.35 7.2 7.35 7.25C7.365 7.575 7.22 7.925 6.985 8.14C6.875 8.235 6.695 8.335 6.555 8.375C6.115 8.53 5.675 8.31 5.415 8.055C5.885 7.945 6.16 7.605 6.25 7.25C6.31 6.945 6.185 6.69 6.135 6.39C6.085 6.1 6.095 5.855 6.2 5.59C6.275 5.735 6.355 5.885 6.45 6C6.75 6.39 7.225 6.56 7.33 7.09ZM11 6C11 8.75 8.75 11 6 11C3.25 11 1 8.75 1 6C1 3.25 3.25 1 6 1C8.75 1 11 3.25 11 6ZM8.58 6.28L8.53 6.18C8.45 6 8.225 5.69 8.225 5.69C8.135 5.575 8.025 5.47 7.925 5.37C7.66 5.135 7.365 4.97 7.11 4.725C6.525 4.155 6.395 3.22 6.77 2.5C6.395 2.59 6.07 2.79 5.79 3.015C4.775 3.825 4.375 5.25 4.855 6.475C4.87 6.515 4.885 6.555 4.885 6.605C4.885 6.69 4.825 6.765 4.75 6.8C4.655 6.835 4.565 6.815 4.5 6.75C4.465 6.73 4.45 6.71 4.435 6.685C4 6.13 3.92 5.33 4.215 4.695C3.56 5.225 3.205 6.12 3.25 6.96C3.28 7.155 3.3 7.35 3.37 7.545C3.425 7.78 3.53 8 3.65 8.22C4.07 8.89 4.805 9.375 5.595 9.47C6.435 9.575 7.335 9.425 7.98 8.85C8.7 8.2 8.95 7.165 8.58 6.28Z" fill="black" fill-opacity="0.6"/>
</g>
</svg>
